<?xml version="1.0" standalone="no"?>
<!DOCTYPE svg PUBLIC "-//W3C//DTD SVG 20010904//EN"
 "http://www.w3.org/TR/2001/REC-SVG-20010904/DTD/svg10.dtd">
<svg version="1.0" xmlns="http://www.w3.org/2000/svg"
 width="500.000000pt" height="500.000000pt" viewBox="0 0 500.000000 500.000000"
 preserveAspectRatio="xMidYMid meet">

<g transform="translate(0.000000,500.000000) scale(0.100000,-0.100000)"
fill="#000000" stroke="none">
<path d="M1170 3120 c0 -6 18 -17 40 -26 22 -9 46 -26 53 -38 8 -14 13 -94 15
-238 l4 -218 149 0 149 0 0 218 c0 242 2 251 66 278 19 8 34 19 34 24 0 6 -94
10 -255 10 -165 0 -255 -4 -255 -10z"/>
<path d="M2330 3120 c0 -5 20 -18 45 -29 29 -13 49 -29 55 -46 6 -15 10 -121
10 -236 l0 -209 25 0 26 0 -7 173 c-4 94 -4 169 0 166 4 -4 35 -81 70 -170
l62 -164 153 -3 c144 -2 153 -1 146 15 -9 22 -150 389 -177 461 l-19 52 -195
0 c-116 0 -194 -4 -194 -10z"/>
<path d="M3346 2877 c-49 -138 -92 -258 -94 -265 -3 -10 4 -13 24 -10 28 3 31
10 91 173 34 94 64 175 67 180 4 6 4 -72 1 -172 l-6 -183 150 0 150 0 3 223
c3 245 4 248 66 274 65 27 35 33 -165 33 l-198 0 -89 -253z"/>
<path d="M1340 2395 l0 -55 34 0 c38 0 66 24 48 42 -6 6 -8 17 -5 26 8 18 -23
42 -54 42 -21 0 -23 -4 -23 -55z m68 23 c-7 -20 -58 -23 -58 -4 0 11 10 16 31
16 20 0 29 -4 27 -12z m0 -50 c3 -14 -3 -18 -27 -18 -25 0 -31 4 -31 21 0 16
5 20 27 17 17 -2 29 -10 31 -20z"/>
<path d="M1557 2443 c-4 -3 -6 -29 -6 -57 1 -28 4 -41 6 -28 6 29 49 31 58 2
3 -11 11 -20 16 -20 6 0 6 8 -1 20 -8 14 -7 25 2 40 11 18 10 23 -6 36 -21 15
-58 19 -69 7z m68 -33 c0 -23 -59 -20 -63 3 -3 15 2 18 30 15 21 -2 33 -8 33
-18z"/>
<path d="M1770 2395 l0 -55 43 2 42 1 -37 4 c-29 3 -38 9 -38 23 0 14 9 20 33
23 l32 4 -32 1 c-44 3 -46 32 -3 32 17 0 30 5 30 10 0 6 -16 10 -35 10 l-35 0
0 -55z"/>
<path d="M1977 2443 c-4 -3 -6 -29 -6 -57 1 -28 4 -41 6 -28 6 29 49 31 58 2
3 -11 11 -20 16 -20 6 0 6 8 -1 20 -8 14 -7 25 2 40 11 18 10 23 -6 36 -21 15
-58 19 -69 7z m68 -33 c0 -23 -59 -20 -63 3 -3 15 2 18 30 15 21 -2 33 -8 33
-18z"/>
<path d="M2367 2444 c-13 -13 -48 -97 -42 -102 2 -3 7 3 11 12 4 9 17 16 34
16 17 0 30 -7 34 -16 4 -9 9 -15 12 -12 2 3 -6 29 -18 58 -13 28 -27 48 -31
44z m17 -40 c9 -23 8 -24 -14 -24 -11 0 -20 2 -20 4 0 12 13 36 20 36 4 0 11
-7 14 -16z"/>
<path d="M2692 2395 c1 -59 1 -59 7 -15 6 43 7 44 19 22 l14 -24 23 22 24 22
4 -43 c3 -44 4 -43 5 9 2 56 -5 63 -33 32 l-19 -21 -22 28 -23 28 1 -60z"/>
<path d="M2942 2434 c-24 -17 -30 -62 -10 -82 7 -7 24 -12 38 -12 33 0 50 17
50 51 0 24 -30 59 -50 59 -3 0 -16 -7 -28 -16z m52 -7 c38 -27 -2 -95 -41 -71
-25 16 -29 55 -7 71 10 7 21 13 24 13 3 0 14 -6 24 -13z"/>
<path d="M3151 2393 c1 -32 4 -48 6 -35 6 28 38 29 53 1 7 -11 14 -18 17 -15
3 3 0 12 -6 20 -8 10 -9 16 -1 21 19 12 11 52 -12 59 -54 14 -58 10 -57 -51z
m67 20 c-2 -11 -14 -19 -31 -21 -22 -3 -27 1 -27 17 0 17 6 21 31 21 24 0 30
-4 27 -17z"/>
<path d="M3392 2434 c-24 -45 -40 -94 -31 -94 5 0 9 7 9 15 0 22 56 20 70 -2
17 -27 2 24 -20 66 -16 32 -18 33 -28 15z m27 -46 c1 -5 -8 -8 -19 -8 -17 0
-18 3 -8 26 11 23 13 24 19 7 4 -10 8 -21 8 -25z"/>
<path d="M3770 2395 l0 -55 43 2 42 1 -37 4 c-29 3 -38 9 -38 23 0 14 9 20 33
23 l32 4 -32 1 c-44 3 -46 32 -3 32 17 0 30 5 30 10 0 6 -16 10 -35 10 l-35 0
0 -55z"/>
<path d="M3982 2438 c-21 -21 -13 -36 23 -48 19 -6 35 -16 35 -21 0 -17 -32
-23 -52 -10 -16 10 -19 10 -16 -1 3 -7 19 -13 39 -13 27 0 35 4 37 22 3 18 -3
24 -29 31 -18 4 -34 13 -36 19 -5 15 28 26 41 13 5 -5 15 -10 21 -10 13 1 -26
30 -40 30 -6 0 -16 -5 -23 -12z"/>
<path d="M1002 2393 l-2 -53 38 1 c36 1 36 2 7 8 -27 5 -31 11 -36 51 l-6 45
-1 -52z"/>
<path d="M1203 2390 c0 -30 2 -43 4 -27 2 15 2 39 0 55 -2 15 -4 2 -4 -28z"/>
<path d="M2193 2390 c0 -30 2 -43 4 -27 2 15 2 39 0 55 -2 15 -4 2 -4 -28z"/>
<path d="M3582 2393 l-2 -53 38 2 c36 1 36 1 5 5 -30 4 -32 7 -36 51 l-3 47
-2 -52z"/>
<path d="M1278 2058 c-2 -89 -9 -162 -16 -174 -6 -12 -30 -29 -52 -38 -22 -9
-40 -20 -40 -26 0 -7 165 -10 484 -10 l484 0 6 83 c17 245 17 267 7 267 -6 0
-33 -48 -61 -107 -28 -58 -62 -122 -76 -141 -43 -55 -72 -62 -264 -62 l-170 0
0 180 0 180 -149 0 -149 0 -4 -152z"/>
<path d="M2440 2063 c0 -170 -11 -202 -74 -223 -66 -21 -38 -30 99 -30 136 0
165 9 100 30 -68 22 -75 43 -75 216 l0 154 -25 0 -25 0 0 -147z"/>
<path d="M2770 2203 c1 -5 34 -93 74 -198 l73 -190 51 -3 c29 -2 52 -1 52 0 0
2 32 91 70 197 39 107 70 195 70 197 0 2 -13 4 -29 4 -21 0 -30 -6 -35 -22
l-7 -23 -9 23 c-9 21 -13 22 -160 22 -82 0 -150 -3 -150 -7z"/>
<path d="M3430 2051 c0 -176 -1 -180 -67 -208 -18 -7 -33 -18 -33 -23 0 -6 92
-10 250 -10 157 0 250 4 250 10 0 5 -18 19 -40 30 -23 12 -45 32 -50 46 -6 14
-10 90 -10 170 l0 144 -150 0 -150 0 0 -159z"/>
</g>
</svg>
